# Blender v2.76 (sub 0) OBJ File: ''
# www.blender.org
mtllib box.mtl
o Cube
v 1.000000 -1.000000 -1.000000
v 1.000000 -1.000000 1.000000
v -1.000000 -1.000000 1.000000
v -1.000000 -1.000000 -1.000000
v 1.000000 1.000000 -0.999999
v 0.999999 1.000000 1.000001
v -1.000000 1.000000 1.000000
v -1.000000 1.000000 -1.000000
v 1.000000 0.148429 -2.430420
v -0.999999 0.148429 -2.430420
v 1.000001 2.148429 -2.430419
v -1.000000 2.148429 -2.430420
vn 0.000000 -1.000000 0.000000
vn 0.000000 1.000000 0.000000
vn 1.000000 0.000000 0.000000
vn -0.000000 0.000000 1.000000
vn -1.000000 -0.000000 -0.000000
vn -0.000000 0.779800 0.626100
vn 0.000000 0.000000 -1.000000
vn 0.000000 -0.779800 -0.626100
usemtl Material
s off
f 2//1 3//1 4//1
f 8//2 7//2 6//2
f 5//3 6//3 2//3
f 6//4 7//4 3//4
f 3//5 7//5 8//5
f 8//6 5//6 11//6
f 9//7 10//7 12//7
f 8//5 12//5 10//5
f 4//8 10//8 9//8
f 5//3 1//3 9//3
f 1//1 2//1 4//1
f 5//2 8//2 6//2
f 1//3 5//3 2//3
f 2//4 6//4 3//4
f 4//5 3//5 8//5
f 12//6 8//6 11//6
f 11//7 9//7 12//7
f 4//5 8//5 10//5
f 1//8 4//8 9//8
f 11//3 5//3 9//3
